<svg viewBox="0 0 351.4 64" xmlns="http://www.w3.org/2000/svg" role="img" aria-label="Smart Farm"><path d="M10 32A22 22 0 0 0 54 32L49 32A17 17 0 0 1 15 32Z" fill="#FBFAF5"/><path d="M32 36C31 31 31 26 32 21" fill="none" stroke="#FBFAF5" stroke-width="3.2" stroke-linecap="round"/><path d="M32 28C34.5 21.5 40 17.5 46 15.5C42.5 21.5 37 25.5 32 29Z" fill="#FBFAF5"/><path d="M32 30C29.5 24.5 25 21.5 19 19.5C22.5 24.5 27 28 32 31Z" fill="#FBFAF5"/><circle cx="32" cy="13.5" r="4.3" fill="#FBFAF5"/><g transform="translate(80 49) scale(0.4942)"><path d="M31.90 1.40Q25.40 1.40 20.25 0.05Q15.10-1.30 11.45-3.95Q7.80-6.60 5.90-10.55Q4-14.50 3.80-19.60L16.70-23.30Q16.80-18.70 18.85-15.70Q20.90-12.70 24.50-11.30Q28.10-9.90 32.70-9.90Q36.90-9.90 39.85-10.95Q42.80-12 44.40-13.80Q46-15.60 46-17.80Q46-20.40 44-22.05Q42-23.70 38.55-24.80Q35.10-25.90 30.80-26.90Q26-28.10 21.40-29.45Q16.80-30.80 13.05-33Q9.30-35.20 7.10-38.70Q4.90-42.20 4.90-47.50Q4.90-53.60 8-58Q11.10-62.40 16.90-64.90Q22.70-67.40 30.80-67.40Q38.90-67.40 44.90-64.90Q50.90-62.40 54.20-57.80Q57.50-53.20 57.50-46.80L44.40-43.60Q44.50-46.70 43.55-49.05Q42.60-51.40 40.80-52.95Q39-54.50 36.45-55.35Q33.90-56.20 30.60-56.20Q26.80-56.20 24.10-55.20Q21.40-54.20 20-52.50Q18.60-50.80 18.60-48.60Q18.60-45.90 20.70-44.20Q22.80-42.50 26.45-41.40Q30.10-40.30 34.50-39.30Q38.80-38.30 43.20-36.95Q47.60-35.60 51.40-33.40Q55.20-31.20 57.50-27.55Q59.80-23.90 59.80-18.40Q59.80-12.30 56.60-7.85Q53.40-3.40 47.15-1Q40.90 1.40 31.90 1.40 M82.10 0L67.70 0L67.70-32L67.70-52.50L79.40-52.50L79.30-35L80.90-35Q82.10-41.60 84.35-45.75Q86.60-49.90 89.90-51.90Q93.20-53.90 97.70-53.90Q102.50-53.90 105.60-51.70Q108.70-49.50 110.35-45.35Q112-41.20 112.30-35.10L113.70-35.10Q115-41.60 117.45-45.75Q119.90-49.90 123.45-51.90Q127-53.90 131.50-53.90Q135.80-53.90 139-52.25Q142.20-50.60 144.35-47.35Q146.50-44.10 147.55-39.15Q148.60-34.20 148.60-27.80L148.60 0L134.20 0L134.20-26.10Q134.20-31.20 133.35-34.65Q132.50-38.10 130.70-39.75Q128.90-41.40 126.10-41.40Q122.90-41.40 120.45-39.10Q118-36.80 116.65-32.55Q115.30-28.30 115.20-22.60L115.20 0L101.10 0L101.10-25.90Q101.10-31.20 100.20-34.60Q99.30-38 97.45-39.70Q95.60-41.40 92.90-41.40Q89.60-41.40 87.25-39.15Q84.90-36.90 83.55-32.65Q82.20-28.40 82.10-22.50 M170.80 1.40Q166.60 1.40 163.15-0.25Q159.70-1.90 157.70-5.15Q155.70-8.40 155.70-13.40Q155.70-17.80 157.40-20.75Q159.10-23.70 162.30-25.55Q165.50-27.40 169.95-28.50Q174.40-29.60 179.80-30.50Q183.60-31.10 185.80-31.60Q188-32.10 189-33.05Q190-34 190-35.90Q190-38.90 187.90-40.85Q185.80-42.80 181.50-42.80Q178.80-42.80 176.35-41.80Q173.90-40.80 172.20-38.75Q170.50-36.70 170-33.40L157.20-36.50Q158.10-41.10 160.30-44.40Q162.50-47.70 165.75-49.80Q169-51.90 173.15-52.90Q177.30-53.90 181.90-53.90Q189.50-53.90 194.40-51.35Q199.30-48.80 201.70-43.60Q204.10-38.40 204.10-30.50L204.10-21.40Q204.10-17.90 204.20-14.30Q204.30-10.70 204.50-7.10Q204.70-3.50 205 0L192.30 0Q192-2.90 191.75-6.30Q191.50-9.70 191.40-13.30L189.90-13.30Q188.80-9.20 186.20-5.85Q183.60-2.50 179.70-0.55Q175.80 1.40 170.80 1.40M176.80-9.10Q178.80-9.10 180.80-9.80Q182.80-10.50 184.65-11.90Q186.50-13.30 188-15.45Q189.50-17.60 190.20-20.50L190.10-27.20L192.40-27Q190.90-25.70 188.60-24.95Q186.30-24.20 183.75-23.75Q181.20-23.30 178.70-22.85Q176.20-22.40 174.15-21.60Q172.10-20.80 170.90-19.40Q169.70-18 169.70-15.60Q169.70-12.50 171.70-10.80Q173.70-9.10 176.80-9.10 M228.20 0L213.80 0L213.80-26L213.80-52.50L225.90-52.50L225.80-33.60L227.50-33.60Q228.20-40.70 230.10-45.15Q232-49.60 235.30-51.65Q238.60-53.70 243.40-53.70Q244.50-53.70 245.75-53.55Q247-53.40 248.50-52.90L247.90-37.50Q246.20-38.30 244.35-38.65Q242.50-39 241.10-39Q237.30-39 234.60-37.15Q231.90-35.30 230.30-31.75Q228.70-28.20 228.20-23 M274.10 1.20Q265.20 1.20 261.05-3.45Q256.90-8.10 256.90-18.10L256.90-41.20L249.70-41.20L249.90-51.90L254-51.90Q257.70-52.10 259.40-53.55Q261.10-55 261.50-58.40L262.50-64.30L270.80-64.30L270.80-52.50L283.80-52.50L283.80-40.80L270.80-40.80L270.80-18.80Q270.80-15.20 272.50-13.55Q274.20-11.90 277.50-11.90Q279.30-11.90 281.05-12.30Q282.80-12.70 284.10-13.60L284.10-0.40Q281.10 0.60 278.55 0.90Q276 1.20 274.10 1.20  M327.50 0L313.10 0L313.10-66L327.50-66L327.50 0M357.30-24.60L320-24.60L320-36.50L357.30-36.50L357.30-24.60M361.10-53.70L320-53.70L320-66L361.10-66 M380.70 1.40Q376.50 1.40 373.05-0.25Q369.60-1.90 367.60-5.15Q365.60-8.40 365.60-13.40Q365.60-17.80 367.30-20.75Q369-23.70 372.20-25.55Q375.40-27.40 379.85-28.50Q384.30-29.60 389.70-30.50Q393.50-31.10 395.70-31.60Q397.90-32.10 398.90-33.05Q399.90-34 399.90-35.90Q399.90-38.90 397.80-40.85Q395.70-42.80 391.40-42.80Q388.70-42.80 386.25-41.80Q383.80-40.80 382.10-38.75Q380.40-36.70 379.90-33.40L367.10-36.50Q368-41.10 370.20-44.40Q372.40-47.70 375.65-49.80Q378.90-51.90 383.05-52.90Q387.20-53.90 391.80-53.90Q399.40-53.90 404.30-51.35Q409.20-48.80 411.60-43.60Q414-38.40 414-30.50L414-21.40Q414-17.90 414.10-14.30Q414.20-10.70 414.40-7.10Q414.60-3.50 414.90 0L402.20 0Q401.90-2.90 401.65-6.30Q401.40-9.70 401.30-13.30L399.80-13.30Q398.70-9.20 396.10-5.85Q393.50-2.50 389.60-0.55Q385.70 1.40 380.70 1.40M386.70-9.10Q388.70-9.10 390.70-9.80Q392.70-10.50 394.55-11.90Q396.40-13.30 397.90-15.45Q399.40-17.60 400.10-20.50L400-27.20L402.30-27Q400.80-25.70 398.50-24.95Q396.20-24.20 393.65-23.75Q391.10-23.30 388.60-22.85Q386.10-22.40 384.05-21.60Q382-20.80 380.80-19.40Q379.60-18 379.60-15.60Q379.60-12.50 381.60-10.80Q383.60-9.10 386.70-9.10 M438.10 0L423.70 0L423.70-26L423.70-52.50L435.80-52.50L435.70-33.60L437.40-33.60Q438.10-40.70 440-45.15Q441.90-49.60 445.20-51.65Q448.50-53.70 453.30-53.70Q454.40-53.70 455.65-53.55Q456.90-53.40 458.40-52.90L457.80-37.50Q456.10-38.30 454.25-38.65Q452.40-39 451-39Q447.20-39 444.50-37.15Q441.80-35.30 440.20-31.75Q438.60-28.20 438.10-23 M478.70 0L464.30 0L464.30-32L464.30-52.50L476-52.50L475.90-35L477.50-35Q478.70-41.60 480.95-45.75Q483.20-49.90 486.50-51.90Q489.80-53.90 494.30-53.90Q499.10-53.90 502.20-51.70Q505.30-49.50 506.95-45.35Q508.60-41.20 508.90-35.10L510.30-35.10Q511.60-41.60 514.05-45.75Q516.50-49.90 520.05-51.90Q523.60-53.90 528.10-53.90Q532.40-53.90 535.60-52.25Q538.80-50.60 540.95-47.35Q543.10-44.10 544.15-39.15Q545.20-34.20 545.20-27.80L545.20 0L530.80 0L530.80-26.10Q530.80-31.20 529.95-34.65Q529.10-38.10 527.30-39.75Q525.50-41.40 522.70-41.40Q519.50-41.40 517.05-39.10Q514.60-36.80 513.25-32.55Q511.90-28.30 511.80-22.60L511.80 0L497.70 0L497.70-25.90Q497.70-31.20 496.80-34.60Q495.90-38 494.05-39.70Q492.20-41.40 489.50-41.40Q486.20-41.40 483.85-39.15Q481.50-36.90 480.15-32.65Q478.80-28.40 478.70-22.50" fill="#FBFAF5"/></g></svg>
